<?xml version="1.0" encoding="utf-8" ?>
<svg xmlns="http://www.w3.org/2000/svg" xmlns:xlink="http://www.w3.org/1999/xlink" width="189" height="97">
	<defs>
		<clipPath id="clip_0">
			<rect x="-20" y="-40" width="1280" height="1606" clip-rule="evenodd"/>
		</clipPath>
		<linearGradient id="gradient_0" gradientUnits="userSpaceOnUse" x1="0" y1="0" x2="192.78" y2="76.760002">
			<stop offset="0" stop-color="rgb(221,22,107)"/>
			<stop offset="1" stop-color="rgb(114,47,217)"/>
		</linearGradient>
	</defs>
	<g clip-path="url(#clip_0)">
		<path fill="url(#gradient_0)" stroke="none" d="M97.8851 15.5663L97.8649 0L105.48 0L105.499 15.5663C105.499 25.7402 98.9869 31.8888 90.2721 31.8888C81.4195 31.8888 75.4112 25.7402 75.4112 15.5663L75.3918 0L82.9131 0L82.934 15.5663C82.934 21.4894 85.5006 25.0168 90.2721 25.0168C94.9492 25.0168 97.8851 21.4894 97.8851 15.5663ZM112.742 59.6776L112.752 16.3224C112.752 6.14928 120.399 0 129.114 0C137.965 0 145.177 6.14928 145.177 16.3224L145.155 31.8888L137.633 31.8888L137.657 16.3224C137.657 10.3994 133.884 6.87197 129.114 6.87197C124.436 6.87197 120.367 10.3994 120.367 16.3224L120.352 31.7316L120.356 31.7316L120.356 59.6776C120.356 69.8507 112.709 76 103.994 76C95.1433 76 87.9314 69.8507 87.9314 59.6776L87.9444 44.2784L95.4665 44.2784L95.4521 59.6776C95.4521 65.6006 99.225 69.1287 103.994 69.1287C108.673 69.1287 112.742 65.6006 112.742 59.6776ZM172.534 0.0405447L155.769 0.0874912L155.769 31.9058L172.534 31.9044C182.258 31.9044 189 24.3218 189 15.3679C189 6.53623 182.85 0.0405447 172.639 0.0405447L172.534 0.0405447ZM9.95584 0.0419673C4.57746 0.0419673 0.202032 4.35536 0.202032 9.65747C0.202032 14.9589 4.57746 19.273 9.95584 19.273L20.1563 19.3135C21.8642 19.3135 23.2546 20.6842 23.2546 22.3686C23.2546 24.0537 21.8642 25.4237 20.1563 25.4237L1.31104 25.4237L1.31104 31.9848L20.1563 31.9848C25.5354 31.9848 29.9101 27.6707 29.9101 22.3686C29.9101 17.0665 25.5354 12.7531 20.1563 12.7531L17.7341 12.7531L17.7341 12.7125L9.95584 12.7125C8.2465 12.7125 6.85681 11.3426 6.85681 9.65747C6.85681 7.97237 8.2465 6.60239 9.95584 6.60239L28.8004 6.60239L28.8004 0.0419673L9.95584 0.0419673ZM52.1884 31.9848C43.2456 31.9848 36.0894 24.8397 36.0894 16.0685C36.0894 7.34215 43.2456 0.152221 52.1884 0.152221C61.041 0.152221 68.2875 7.34215 68.2875 16.0685C68.2875 24.8397 61.041 31.9848 52.1884 31.9848ZM172.534 6.91394L163.291 6.91536L163.291 25.0332L172.534 25.0317C177.764 25.0317 181.386 20.5234 181.386 15.3679C181.386 9.85308 177.856 6.91394 172.534 6.91394ZM42.9693 16.0685C42.9693 11.0957 47.0979 7.07043 52.1884 7.07043C57.188 7.07043 61.3152 11.0957 61.3152 16.0685C61.3152 21.0875 57.188 25.1128 52.1884 25.1128C47.0979 25.1128 42.9693 21.0875 42.9693 16.0685ZM34.5215 57.1908L34.5215 44.1361L42.089 44.1361L42.089 76L34.5215 76L34.5215 64.0635L22.5504 64.0635L22.5504 64.0877L16.2722 64.0877L16.2722 76L8.75014 76L8.75014 64.0877L0 64.0877L0 57.1908L8.75014 57.1908L8.75014 44.1361L16.2722 44.1361L16.2722 57.1908L34.5215 57.1908ZM48.9249 60.0837C48.9249 68.8556 56.0804 76 65.0239 76C73.8751 76 81.123 68.8556 81.123 60.0837C81.123 51.3566 73.8751 44.1681 65.0239 44.1681C56.0804 44.1681 48.9249 51.3566 48.9249 60.0837ZM136.909 44.3367C131.531 44.3367 127.155 48.6131 127.155 53.8683C127.155 59.1242 131.531 63.3998 136.909 63.3998L145.977 63.4397C147.685 63.4397 149.076 64.7976 149.076 66.4684C149.076 68.1386 147.685 69.4965 145.977 69.4965L128.264 69.4965L128.264 76L145.977 76C151.354 76 155.73 71.7236 155.73 66.4684C155.73 61.2133 151.354 56.9369 145.977 56.9369L143.554 56.9369L143.554 56.8963L136.909 56.8963C135.2 56.8963 133.811 55.5384 133.811 53.8683C133.811 52.1981 135.2 50.8402 136.909 50.8402L154.621 50.8402L154.621 44.3367L136.909 44.3367ZM163.901 76L163.901 44.415L187.866 44.415L187.866 51.4761L171.423 51.4761L171.423 56.9098L185.091 56.9098L185.091 63.5065L171.423 63.5065L171.423 68.9395L187.866 68.9395L187.866 76L163.901 76ZM65.0239 51.0863C59.932 51.0863 55.8041 55.1109 55.8041 60.0837C55.8041 65.1041 59.932 69.1287 65.0239 69.1287C70.0228 69.1287 74.1514 65.1041 74.1514 60.0837C74.1514 55.1109 70.0228 51.0863 65.0239 51.0863Z" fill-rule="evenodd"/>
	</g>
	<defs>
		<clipPath id="clip_1">
			<rect x="-20" y="-40" width="1280" height="1606" clip-rule="evenodd"/>
		</clipPath>
		<linearGradient id="gradient_1" gradientUnits="userSpaceOnUse" x1="0" y1="0" x2="192.78" y2="76.760002">
			<stop offset="0" stop-color="rgb(221,22,107)"/>
			<stop offset="1" stop-color="rgb(114,47,217)"/>
		</linearGradient>
	</defs>
	<g clip-path="url(#clip_1)">
		<path fill="url(#gradient_1)" stroke="none" d="M97.8851 15.5663L97.8649 0L105.48 0L105.499 15.5663C105.499 25.7402 98.9869 31.8888 90.2721 31.8888C81.4195 31.8888 75.4112 25.7402 75.4112 15.5663L75.3918 0L82.9131 0L82.934 15.5663C82.934 21.4894 85.5006 25.0168 90.2721 25.0168C94.9492 25.0168 97.8851 21.4894 97.8851 15.5663ZM112.742 59.6776L112.752 16.3224C112.752 6.14928 120.399 0 129.114 0C137.965 0 145.177 6.14928 145.177 16.3224L145.155 31.8888L137.633 31.8888L137.657 16.3224C137.657 10.3994 133.884 6.87197 129.114 6.87197C124.436 6.87197 120.367 10.3994 120.367 16.3224L120.352 31.7316L120.356 31.7316L120.356 59.6776C120.356 69.8507 112.709 76 103.994 76C95.1433 76 87.9314 69.8507 87.9314 59.6776L87.9444 44.2784L95.4665 44.2784L95.4521 59.6776C95.4521 65.6006 99.225 69.1287 103.994 69.1287C108.673 69.1287 112.742 65.6006 112.742 59.6776ZM172.534 0.0405447L155.769 0.0874912L155.769 31.9058L172.534 31.9044C182.258 31.9044 189 24.3218 189 15.3679C189 6.53623 182.85 0.0405447 172.639 0.0405447L172.534 0.0405447ZM9.95584 0.0419673C4.57746 0.0419673 0.202032 4.35536 0.202032 9.65747C0.202032 14.9589 4.57746 19.273 9.95584 19.273L20.1563 19.3135C21.8642 19.3135 23.2546 20.6842 23.2546 22.3686C23.2546 24.0537 21.8642 25.4237 20.1563 25.4237L1.31104 25.4237L1.31104 31.9848L20.1563 31.9848C25.5354 31.9848 29.9101 27.6707 29.9101 22.3686C29.9101 17.0665 25.5354 12.7531 20.1563 12.7531L17.7341 12.7531L17.7341 12.7125L9.95584 12.7125C8.2465 12.7125 6.85681 11.3426 6.85681 9.65747C6.85681 7.97237 8.2465 6.60239 9.95584 6.60239L28.8004 6.60239L28.8004 0.0419673L9.95584 0.0419673ZM52.1884 31.9848C43.2456 31.9848 36.0894 24.8397 36.0894 16.0685C36.0894 7.34215 43.2456 0.152221 52.1884 0.152221C61.041 0.152221 68.2875 7.34215 68.2875 16.0685C68.2875 24.8397 61.041 31.9848 52.1884 31.9848ZM172.534 6.91394L163.291 6.91536L163.291 25.0332L172.534 25.0317C177.764 25.0317 181.386 20.5234 181.386 15.3679C181.386 9.85308 177.856 6.91394 172.534 6.91394ZM42.9693 16.0685C42.9693 11.0957 47.0979 7.07043 52.1884 7.07043C57.188 7.07043 61.3152 11.0957 61.3152 16.0685C61.3152 21.0875 57.188 25.1128 52.1884 25.1128C47.0979 25.1128 42.9693 21.0875 42.9693 16.0685ZM34.5215 57.1908L34.5215 44.1361L42.089 44.1361L42.089 76L34.5215 76L34.5215 64.0635L22.5504 64.0635L22.5504 64.0877L16.2722 64.0877L16.2722 76L8.75014 76L8.75014 64.0877L0 64.0877L0 57.1908L8.75014 57.1908L8.75014 44.1361L16.2722 44.1361L16.2722 57.1908L34.5215 57.1908ZM48.9249 60.0837C48.9249 68.8556 56.0804 76 65.0239 76C73.8751 76 81.123 68.8556 81.123 60.0837C81.123 51.3566 73.8751 44.1681 65.0239 44.1681C56.0804 44.1681 48.9249 51.3566 48.9249 60.0837ZM136.909 44.3367C131.531 44.3367 127.155 48.6131 127.155 53.8683C127.155 59.1242 131.531 63.3998 136.909 63.3998L145.977 63.4397C147.685 63.4397 149.076 64.7976 149.076 66.4684C149.076 68.1386 147.685 69.4965 145.977 69.4965L128.264 69.4965L128.264 76L145.977 76C151.354 76 155.73 71.7236 155.73 66.4684C155.73 61.2133 151.354 56.9369 145.977 56.9369L143.554 56.9369L143.554 56.8963L136.909 56.8963C135.2 56.8963 133.811 55.5384 133.811 53.8683C133.811 52.1981 135.2 50.8402 136.909 50.8402L154.621 50.8402L154.621 44.3367L136.909 44.3367ZM163.901 76L163.901 44.415L187.866 44.415L187.866 51.4761L171.423 51.4761L171.423 56.9098L185.091 56.9098L185.091 63.5065L171.423 63.5065L171.423 68.9395L187.866 68.9395L187.866 76L163.901 76ZM65.0239 51.0863C59.932 51.0863 55.8041 55.1109 55.8041 60.0837C55.8041 65.1041 59.932 69.1287 65.0239 69.1287C70.0228 69.1287 74.1514 65.1041 74.1514 60.0837C74.1514 55.1109 70.0228 51.0863 65.0239 51.0863Z" fill-rule="evenodd"/>
	</g>
	<defs>
		<clipPath id="clip_2">
			<rect x="-20" y="-40" width="1280" height="1606" clip-rule="evenodd"/>
		</clipPath>
	</defs>
	<g clip-path="url(#clip_2)">
		<path fill="rgb(237,237,237)" stroke="none" transform="translate(0 90)" d="M0 6.9289L1.21464 6.9289L1.21464 4.2293C1.5225 4.24726 1.92884 4.26521 2.28193 4.26521L3.76211 6.9289L5.17664 6.9289L3.54618 4.14097C4.42816 3.92049 4.99645 3.36391 4.99645 2.11357C4.99645 0.29445 3.73804 0 2.22502 0C1.41818 0 0.577047 0.076126 0 0.179542L0 6.9289ZM18.9937 6.92818L21.1049 0.817995C21.2989 0.255668 21.6666 0 22.1517 0C22.6296 0 23.0002 0.255668 23.1913 0.817995L25.2697 6.92818L23.9785 6.92818L23.389 5.10619L20.824 5.10619L20.2433 6.92818L18.9937 6.92818ZM46.6328 0.817995L44.5216 6.92818L45.7713 6.92818L46.352 5.10619L48.9177 5.10619L49.5057 6.92818L50.7984 6.92818L48.7192 0.817995C48.5281 0.255668 48.1575 0 47.679 0C47.1953 0 46.8276 0.255668 46.6328 0.817995ZM65.8519 0.179542C66.429 0.076126 67.2694 0 68.0762 0C70.6748 0 71.1358 1.16918 71.1358 3.49964C71.1358 5.83082 70.6748 6.99928 68.0762 6.99928C67.2694 6.99928 66.429 6.92244 65.8519 6.81974L65.8519 0.179542ZM82.6578 3.49964C82.6578 5.98379 83.2698 7 85.4168 7C87.5638 7 88.1736 5.98379 88.1736 3.49964C88.1736 1.01549 87.5638 0 85.4168 0C83.2698 0 82.6578 1.01549 82.6578 3.49964ZM119.439 6.9289L120.653 6.9289L120.653 4.28245C120.971 4.3004 121.388 4.31764 121.745 4.31764C123.324 4.31764 124.436 3.92911 124.436 2.13943C124.436 0.300195 123.198 0 121.664 0C120.857 0 120.016 0.076126 119.439 0.179542L119.439 6.9289ZM139.917 6.9289L138.704 6.9289L138.704 0.179542C139.28 0.076126 140.12 0 140.928 0C142.44 0 143.699 0.29445 143.699 2.11357C143.699 3.36391 143.131 3.92049 142.249 4.14097L143.879 6.9289L142.464 6.9289L140.985 4.26521C140.632 4.26521 140.225 4.24726 139.917 4.2293L139.917 6.9289ZM166.535 0.764851C166.233 0.202524 165.893 0 165.462 0C164.999 0 164.714 0.258541 164.714 0.868267L164.714 6.9289L165.8 6.9289L165.8 1.54191L168.315 6.22797C168.62 6.79676 168.936 6.99928 169.391 6.99928C169.864 6.99928 170.138 6.73787 170.138 6.12814L170.138 0.0703806L169.053 0.0703806L169.053 5.43942L166.535 0.764851ZM178.132 0C178.823 0 179.432 0.0789987 179.881 0.187442L179.774 1.09736C179.34 1.02986 178.876 0.986047 178.404 0.986047C176.532 0.986047 176.517 2.05109 176.517 3.49964C176.517 4.95322 176.532 6.01395 178.404 6.01395C178.876 6.01395 179.34 5.96871 179.774 5.9012L179.881 6.81112C179.432 6.91957 178.823 7 178.132 7C175.838 7 175.273 5.93352 175.273 3.49964C175.273 1.06217 175.841 0 178.132 0ZM14.2372 0.0998256L14.2372 1.00903L12.3682 1.00903C11.3972 1.00903 11.2324 1.20078 11.2324 2.07192L11.2324 2.9725L14.103 2.9725L14.103 3.90541L11.2324 3.90541L11.2324 4.92664C11.2324 5.79778 11.3972 5.99025 12.3682 5.99025L14.2372 5.99025L14.2372 6.89874C13.7288 6.92244 12.8862 6.94686 12.3981 6.94686C11.1638 6.94686 10.0177 6.88222 10.0177 5.3281L10.0177 1.67118C10.0177 0.117062 11.1638 0.0524264 12.3981 0.0524264C12.8862 0.0524264 13.7288 0.076126 14.2372 0.0998256ZM103.904 0.0998256L103.904 1.00903L102.034 1.00903C101.063 1.00903 100.899 1.20078 100.899 2.07192L100.899 2.9725L103.768 2.9725L103.768 3.90541L100.899 3.90541L100.899 4.92664C100.899 5.79778 101.063 5.99025 102.034 5.99025L103.904 5.99025L103.904 6.89874C103.395 6.92244 102.552 6.94686 102.064 6.94686C100.83 6.94686 99.6839 6.88222 99.6839 5.3281L99.6839 1.67118C99.6839 0.117062 100.83 0.0524264 102.064 0.0524264C102.552 0.0524264 103.395 0.076126 103.904 0.0998256ZM133.549 0.0998256L133.549 1.00903L131.681 1.00903C130.709 1.00903 130.544 1.20078 130.544 2.07192L130.544 2.9725L133.415 2.9725L133.415 3.90541L130.544 3.90541L130.544 4.92664C130.544 5.79778 130.709 5.99025 131.681 5.99025L133.549 5.99025L133.549 6.89874C133.04 6.92244 132.198 6.94686 131.71 6.94686C130.475 6.94686 129.33 6.88222 129.33 5.3281L129.33 1.67118C129.33 0.117062 130.475 0.0524264 131.71 0.0524264C132.198 0.0524264 133.04 0.076126 133.549 0.0998256ZM159.56 0.0998256L159.56 1.00903L157.692 1.00903C156.72 1.00903 156.556 1.20078 156.556 2.07192L156.556 2.9725L159.426 2.9725L159.426 3.90541L156.556 3.90541L156.556 4.92664C156.556 5.79778 156.72 5.99025 157.692 5.99025L159.56 5.99025L159.56 6.89874C159.052 6.92244 158.209 6.94686 157.722 6.94686C156.487 6.94686 155.341 6.88222 155.341 5.3281L155.341 1.67118C155.341 0.117062 156.487 0.0524264 157.722 0.0524264C158.209 0.0524264 159.052 0.076126 159.56 0.0998256ZM189 0.0998256L189 1.00903L187.13 1.00903C186.159 1.00903 185.995 1.20078 185.995 2.07192L185.995 2.9725L188.864 2.9725L188.864 3.90541L185.995 3.90541L185.995 4.92664C185.995 5.79778 186.159 5.99025 187.13 5.99025L189 5.99025L189 6.89874C188.492 6.92244 187.647 6.94686 187.161 6.94686C185.926 6.94686 184.781 6.88222 184.781 5.3281L184.781 1.67118C184.781 0.117062 185.926 0.0524264 187.161 0.0524264C187.647 0.0524264 188.492 0.076126 189 0.0998256ZM31.2145 0.0696625L29.9977 0.0696625L29.9977 5.32738C29.9977 6.8815 31.143 6.94686 32.3774 6.94686C32.8297 6.94686 33.5854 6.92531 34.0998 6.9052L34.0998 5.99025L32.3504 5.99025C31.3787 5.99025 31.2145 5.7985 31.2145 4.92664L31.2145 0.0696625ZM76.2847 6.92818L77.5045 6.92818L77.5045 0.0696625L76.2847 0.0696625L76.2847 6.92818ZM148.82 6.92818L150.039 6.92818L150.039 0.0696625L148.82 0.0696625L148.82 6.92818ZM55.3761 0.0703806L56.5761 0.0703806L56.5761 4.72699C56.5761 5.6362 56.9431 6.01036 57.96 6.01036C58.977 6.01036 59.3439 5.6362 59.3439 4.72699L59.3439 0.0703806L60.5432 0.0703806L60.5432 4.65015C60.5432 6.51093 59.5241 6.99928 57.96 6.99928C56.3959 6.99928 55.3761 6.51093 55.3761 4.65015L55.3761 0.0703806ZM112.305 3.39982L114.46 0.0703806L113.154 0.0703806L111.656 2.45183L110.169 0.0703806L108.785 0.0703806L110.962 3.43788L108.702 6.92818L110.039 6.92818L111.595 4.40597L113.193 6.92818L114.592 6.92818L112.305 3.39982ZM1.21464 3.29065C1.54949 3.33159 1.88361 3.33446 2.22502 3.33446C3.20841 3.33446 3.79202 3.09028 3.79202 2.10998C3.79202 1.25105 3.38787 0.914948 2.26077 0.914948C1.93176 0.914948 1.55241 0.938648 1.21464 0.983174L1.21464 3.29065ZM140.928 3.33446C140.586 3.33446 140.252 3.33159 139.917 3.29065L139.917 0.983174C140.255 0.938648 140.635 0.914948 140.964 0.914948C142.091 0.914948 142.494 1.25105 142.494 2.10998C142.494 3.09028 141.911 3.33446 140.928 3.33446ZM120.653 3.34954C120.988 3.39048 121.323 3.39335 121.664 3.39335C122.669 3.39335 123.231 3.14056 123.231 2.13943C123.231 1.26541 122.848 0.921412 121.701 0.921412C121.372 0.921412 120.991 0.944393 120.653 0.98892L120.653 3.34954ZM67.88 6.03693C67.5619 6.03693 67.2869 6.00749 67.0687 5.97804L67.0687 1.02196C67.2869 0.99251 67.5619 0.963066 67.88 0.963066C69.9 0.963066 69.9153 2.06043 69.9153 3.49964C69.9153 4.93957 69.9 6.03693 67.88 6.03693ZM85.4168 6.0276C86.8999 6.0276 86.9422 4.99774 86.9422 3.49964C86.9422 2.00154 86.8999 0.967375 85.4168 0.967375C83.9344 0.967375 83.895 2.00154 83.895 3.49964C83.895 4.99774 83.9344 6.0276 85.4168 6.0276ZM22.097 1.10024L23.0994 4.20273L21.11 4.20273L22.097 1.10024ZM48.6273 4.20273L47.625 1.10024L46.6379 4.20273L48.6273 4.20273Z" fill-rule="evenodd"/>
	</g>
</svg>
