<?xml version="1.0" encoding="utf-8" ?>
<svg xmlns="http://www.w3.org/2000/svg" xmlns:xlink="http://www.w3.org/1999/xlink" width="119" height="61">
	<defs>
		<clipPath id="clip_0">
			<rect x="-44.51001" y="-39.440002" width="1267.2" height="792" clip-rule="evenodd"/>
		</clipPath>
	</defs>
	<g clip-path="url(#clip_0)">
		<path fill="rgb(255,255,255)" stroke="none" transform="matrix(0.99 0 0 0.99 1.03003 0.160034)" d="M61.6314 9.68627L61.6186 0L66.4134 0L66.4252 9.68627C66.4252 16.017 62.3251 19.843 56.838 19.843C51.2641 19.843 47.4812 16.017 47.4812 9.68627L47.4689 0L52.2046 0L52.2177 9.68627C52.2177 13.372 53.8337 15.5669 56.838 15.5669C59.7828 15.5669 61.6314 13.372 61.6314 9.68627ZM70.9855 37.1348L70.9919 10.1568C70.9919 3.82644 75.807 0 81.2941 0C86.8671 0 91.4078 3.82644 91.4078 10.1568L91.3938 19.843L86.6576 19.843L86.6726 10.1568C86.6726 6.47108 84.2975 4.27614 81.2941 4.27614C78.3484 4.27614 75.7866 6.47108 75.7866 10.1568L75.7775 19.7452L75.7798 19.7452L75.7798 37.1348C75.7798 43.4651 70.965 47.2916 65.478 47.2916C59.905 47.2916 55.3642 43.4651 55.3642 37.1348L55.3724 27.5526L60.1085 27.5526L60.0995 37.1348C60.0995 40.8205 62.475 43.0159 65.478 43.0159C68.4237 43.0159 70.9855 40.8205 70.9855 37.1348ZM108.633 0.0252293L98.077 0.0544421L98.077 19.8537L108.633 19.8528C114.755 19.8528 119 15.1345 119 9.56277C119 4.06722 115.128 0.0252293 108.699 0.0252293L108.633 0.0252293ZM6.26849 0.0261145C2.88211 0.0261145 0.127205 2.71015 0.127205 6.00943C0.127205 9.30827 2.88211 11.9928 6.26849 11.9928L12.691 12.018C13.7663 12.018 14.6418 12.8709 14.6418 13.919C14.6418 14.9676 13.7663 15.8201 12.691 15.8201L0.825471 15.8201L0.825471 19.9028L12.691 19.9028C16.0778 19.9028 18.8323 17.2183 18.8323 13.919C18.8323 10.6197 16.0778 7.93571 12.691 7.93571L11.1659 7.93571L11.1659 7.91048L6.26849 7.91048C5.19224 7.91048 4.31725 7.058 4.31725 6.00943C4.31725 4.96087 5.19224 4.10839 6.26849 4.10839L18.1336 4.10839L18.1336 0.0261145L6.26849 0.0261145ZM32.8594 19.9028C27.2287 19.9028 22.7229 15.4567 22.7229 9.99875C22.7229 4.56871 27.2287 0.0947204 32.8594 0.0947204C38.4332 0.0947204 42.9958 4.56871 42.9958 9.99875C42.9958 15.4567 38.4332 19.9028 32.8594 19.9028ZM108.633 4.30225L102.813 4.30314L102.813 15.5771L108.633 15.5762C111.926 15.5762 114.206 12.7709 114.206 9.56277C114.206 6.13115 111.983 4.30225 108.633 4.30225ZM27.0547 9.99875C27.0547 6.90441 29.6543 4.39963 32.8594 4.39963C36.0072 4.39963 38.6059 6.90441 38.6059 9.99875C38.6059 13.1219 36.0072 15.6266 32.8594 15.6266C29.6543 15.6266 27.0547 13.1219 27.0547 9.99875ZM21.7357 35.5874L21.7357 27.464L26.5005 27.464L26.5005 47.2916L21.7357 47.2916L21.7357 39.864L14.1984 39.864L14.1984 39.879L10.2455 39.879L10.2455 47.2916L5.50935 47.2916L5.50935 39.879L0 39.879L0 35.5874L5.50935 35.5874L5.50935 27.464L10.2455 27.464L10.2455 35.5874L21.7357 35.5874ZM30.8046 37.3876C30.8046 42.8459 35.3099 47.2916 40.941 47.2916C46.5139 47.2916 51.0774 42.8459 51.0774 37.3876C51.0774 31.9571 46.5139 27.484 40.941 27.484C35.3099 27.484 30.8046 31.9571 30.8046 37.3876ZM86.202 27.5889C82.8156 27.5889 80.0607 30.2499 80.0607 33.5199C80.0607 36.7905 82.8156 39.451 86.202 39.451L91.9112 39.4758C92.9865 39.4758 93.8624 40.3208 93.8624 41.3605C93.8624 42.3998 92.9865 43.2447 91.9112 43.2447L80.7589 43.2447L80.7589 47.2916L91.9112 47.2916C95.2971 47.2916 98.052 44.6306 98.052 41.3605C98.052 38.0904 95.2971 35.4294 91.9112 35.4294L90.3857 35.4294L90.3857 35.4042L86.202 35.4042C85.1257 35.4042 84.2512 34.5592 84.2512 33.5199C84.2512 32.4807 85.1257 31.6357 86.202 31.6357L97.3538 31.6357L97.3538 27.5889L86.202 27.5889ZM103.197 47.2916L103.197 27.6375L118.286 27.6375L118.286 32.0314L107.933 32.0314L107.933 35.4126L116.539 35.4126L116.539 39.5174L107.933 39.5174L107.933 42.8981L118.286 42.8981L118.286 47.2916L103.197 47.2916ZM40.941 31.7889C37.735 31.7889 35.1359 34.2932 35.1359 37.3875C35.1359 40.5116 37.735 43.0159 40.941 43.0159C44.0884 43.0159 46.6879 40.5116 46.6879 37.3875C46.6879 34.2932 44.0884 31.7889 40.941 31.7889Z" fill-rule="evenodd"/>
	</g>
	<defs>
		<clipPath id="clip_1">
			<rect x="-44.51001" y="-39.440002" width="1267.2" height="792" clip-rule="evenodd"/>
		</clipPath>
	</defs>
	<g clip-path="url(#clip_1)">
		<path fill="rgb(237,237,237)" stroke="none" transform="matrix(0.99 0 0 0.99 1.03003 56.0992)" d="M0 4.25557L0.764776 4.25557L0.764776 2.59754C0.958611 2.60856 1.21445 2.61959 1.43677 2.61959L2.36874 4.25557L3.25937 4.25557L2.23278 2.54328C2.7881 2.40787 3.14591 2.06603 3.14591 1.29811C3.14591 0.180844 2.35358 0 1.40094 0C0.892927 0 0.363326 0.0467548 0 0.110271L0 4.25557ZM11.959 4.25513L13.2883 0.502393C13.4104 0.157026 13.6419 0 13.9474 0C14.2483 0 14.4816 0.157026 14.6019 0.502393L15.9105 4.25513L15.0975 4.25513L14.7264 3.1361L13.1114 3.1361L12.7458 4.25513L11.959 4.25513ZM29.3614 0.502393L28.0321 4.25513L28.8189 4.25513L29.1846 3.1361L30.8 3.1361L31.1702 4.25513L31.9842 4.25513L30.6751 0.502393C30.5547 0.157026 30.3214 0 30.0201 0C29.7156 0 29.4841 0.157026 29.3614 0.502393ZM41.4623 0.110271C41.8256 0.0467548 42.3548 0 42.8628 0C44.4989 0 44.7892 0.718083 44.7892 2.1494C44.7892 3.58115 44.4989 4.29879 42.8628 4.29879C42.3548 4.29879 41.8256 4.2516 41.4623 4.18852L41.4623 0.110271ZM52.0438 2.1494C52.0438 3.6751 52.4292 4.29923 53.7809 4.29923C55.1327 4.29923 55.5167 3.6751 55.5167 2.1494C55.5167 0.623691 55.1327 0 53.7809 0C52.4292 0 52.0438 0.623691 52.0438 2.1494ZM75.2025 4.25557L75.9668 4.25557L75.9668 2.63018C76.1671 2.6412 76.4298 2.65179 76.6544 2.65179C77.6484 2.65179 78.3489 2.41316 78.3489 1.31399C78.3489 0.184373 77.5694 0 76.603 0C76.0954 0 75.5658 0.0467548 75.2025 0.110271L75.2025 4.25557ZM88.0957 4.25557L87.3319 4.25557L87.3319 0.110271C87.6947 0.0467548 88.2239 0 88.7323 0C89.6845 0 90.4773 0.180844 90.4773 1.29811C90.4773 2.06603 90.1195 2.40787 89.5642 2.54328L90.5903 4.25557L89.6997 4.25557L88.7682 2.61959C88.5459 2.61959 88.29 2.60856 88.0957 2.59754L88.0957 4.25557ZM104.856 0.469753C104.665 0.124385 104.451 0 104.18 0C103.888 0 103.709 0.15879 103.709 0.533269L103.709 4.25557L104.393 4.25557L104.393 0.947005L105.976 3.82507C106.168 4.17441 106.367 4.29879 106.653 4.29879C106.951 4.29879 107.124 4.13824 107.124 3.76376L107.124 0.0432261L106.441 0.0432261L106.441 3.34076L104.856 0.469753ZM112.157 0C112.592 0 112.976 0.0485191 113.258 0.115123L113.191 0.673975C112.918 0.632513 112.625 0.605607 112.328 0.605607C111.15 0.605607 111.14 1.25973 111.14 2.1494C111.14 3.04215 111.15 3.69363 112.328 3.69363C112.625 3.69363 112.918 3.66584 113.191 3.62438L113.258 4.18323C112.976 4.24983 112.592 4.29923 112.157 4.29923C110.713 4.29923 110.357 3.64423 110.357 2.1494C110.357 0.652362 110.715 0 112.157 0ZM8.96418 0.0613105L8.96418 0.619721L7.78739 0.619721C7.17603 0.619721 7.07222 0.737491 7.07222 1.27252L7.07222 1.82564L8.87966 1.82564L8.87966 2.39861L7.07222 2.39861L7.07222 3.02583C7.07222 3.56086 7.17603 3.67907 7.78739 3.67907L8.96418 3.67907L8.96418 4.23704C8.64403 4.2516 8.11351 4.26659 7.80622 4.26659C7.02905 4.26659 6.30745 4.2269 6.30745 3.27239L6.30745 1.0264C6.30745 0.0718965 7.02905 0.0321991 7.80622 0.0321991C8.11351 0.0321991 8.64403 0.0467548 8.96418 0.0613105ZM65.4212 0.0613105L65.4212 0.619721L64.2439 0.619721C63.6321 0.619721 63.5287 0.737491 63.5287 1.27252L63.5287 1.82564L65.3357 1.82564L65.3357 2.39861L63.5287 2.39861L63.5287 3.02583C63.5287 3.56086 63.6321 3.67907 64.2439 3.67907L65.4212 3.67907L65.4212 4.23704C65.1005 4.2516 64.5696 4.26659 64.2627 4.26659C63.4856 4.26659 62.764 4.2269 62.764 3.27239L62.764 1.0264C62.764 0.0718965 63.4856 0.0321991 64.2627 0.0321991C64.5696 0.0321991 65.1005 0.0467548 65.4212 0.0613105ZM84.0863 0.0613105L84.0863 0.619721L82.9099 0.619721C82.2981 0.619721 82.1943 0.737491 82.1943 1.27252L82.1943 1.82564L84.0018 1.82564L84.0018 2.39861L82.1943 2.39861L82.1943 3.02583C82.1943 3.56086 82.2981 3.67907 82.9099 3.67907L84.0863 3.67907L84.0863 4.23704C83.7661 4.2516 83.2356 4.26659 82.9288 4.26659C82.1507 4.26659 81.43 4.2269 81.43 3.27239L81.43 1.0264C81.43 0.0718965 82.1507 0.0321991 82.9288 0.0321991C83.2356 0.0321991 83.7661 0.0467548 84.0863 0.0613105ZM100.464 0.0613105L100.464 0.619721L99.2876 0.619721C98.6758 0.619721 98.572 0.737491 98.572 1.27252L98.572 1.82564L100.379 1.82564L100.379 2.39861L98.572 2.39861L98.572 3.02583C98.572 3.56086 98.6758 3.67907 99.2876 3.67907L100.464 3.67907L100.464 4.23704C100.144 4.2516 99.6133 4.26659 99.3065 4.26659C98.5288 4.26659 97.8072 4.2269 97.8072 3.27239L97.8072 1.0264C97.8072 0.0718965 98.5288 0.0321991 99.3065 0.0321991C99.6133 0.0321991 100.144 0.0467548 100.464 0.0613105ZM119 0.0613105L119 0.619721L117.823 0.619721C117.211 0.619721 117.108 0.737491 117.108 1.27252L117.108 1.82564L118.915 1.82564L118.915 2.39861L117.108 2.39861L117.108 3.02583C117.108 3.56086 117.211 3.67907 117.823 3.67907L119 3.67907L119 4.23704C118.68 4.2516 118.148 4.26659 117.842 4.26659C117.064 4.26659 116.344 4.2269 116.344 3.27239L116.344 1.0264C116.344 0.0718965 117.064 0.0321991 117.842 0.0321991C118.148 0.0321991 118.68 0.0467548 119 0.0613105ZM19.6536 0.042785L18.8874 0.042785L18.8874 3.27195C18.8874 4.22646 19.6086 4.26659 20.3857 4.26659C20.6705 4.26659 21.1464 4.25336 21.4702 4.24101L21.4702 3.67907L20.3688 3.67907C19.7569 3.67907 19.6536 3.5613 19.6536 3.02583L19.6536 0.042785ZM48.0311 4.25513L49.0311 4.25513L49.0311 0.042785L48.0311 0.042785L48.0311 4.25513ZM93.7013 4.25513L94.7013 4.25513L94.7013 0.042785L93.7013 0.042785L93.7013 4.25513ZM34.8664 0.0432261L35.622 0.0432261L35.622 2.90321C35.622 3.46162 35.853 3.69142 36.4933 3.69142C37.1336 3.69142 37.3647 3.46162 37.3647 2.90321L37.3647 0.0432261L38.1198 0.0432261L38.1198 2.85601C38.1198 3.99886 37.4781 4.29879 36.4933 4.29879C35.5086 4.29879 34.8664 3.99886 34.8664 2.85601L34.8664 0.0432261ZM70.7103 2.08809L72.0676 0.0432261L71.2449 0.0432261L70.3019 1.50586L69.3658 0.0432261L68.4945 0.0432261L69.8647 2.11146L68.4421 4.25513L69.2836 4.25513L70.2638 2.70604L71.2697 4.25513L72.1507 4.25513L70.7103 2.08809ZM0.764776 2.02104C0.975606 2.04618 1.18598 2.04795 1.40094 2.04795C2.02011 2.04795 2.38757 1.89798 2.38757 1.2959C2.38757 0.768366 2.1331 0.56194 1.42345 0.56194C1.21629 0.56194 0.977443 0.576495 0.764776 0.603842L0.764776 2.02104ZM88.7323 2.04795C88.5174 2.04795 88.3065 2.04618 88.0957 2.02104L88.0957 0.603842C88.3088 0.576495 88.5477 0.56194 88.7549 0.56194C89.4645 0.56194 89.7185 0.768366 89.7185 1.2959C89.7185 1.89798 89.3515 2.04795 88.7323 2.04795ZM75.9668 2.05721C76.1776 2.08235 76.3885 2.08412 76.603 2.08412C77.2359 2.08412 77.59 1.92886 77.59 1.31399C77.59 0.777188 77.3484 0.565909 76.6264 0.565909C76.4192 0.565909 76.1795 0.580024 75.9668 0.607371L75.9668 2.05721ZM42.7392 3.70774C42.539 3.70774 42.3658 3.68966 42.2285 3.67157L42.2285 0.627661C42.3658 0.609577 42.539 0.591492 42.7392 0.591492C44.0111 0.591492 44.0208 1.26547 44.0208 2.1494C44.0208 3.03377 44.0111 3.70774 42.7392 3.70774ZM53.7809 3.70201C54.7148 3.70201 54.7414 3.0695 54.7414 2.1494C54.7414 1.2293 54.7148 0.594139 53.7809 0.594139C52.8476 0.594139 52.8228 1.2293 52.8228 2.1494C52.8228 3.0695 52.8476 3.70201 53.7809 3.70201ZM13.9129 0.675739L14.5441 2.58122L13.2915 2.58122L13.9129 0.675739ZM30.6172 2.58122L29.9861 0.675739L29.3646 2.58122L30.6172 2.58122Z" fill-rule="evenodd"/>
	</g>
</svg>
